<?xml version="1.0" standalone="no"?>
<!DOCTYPE svg PUBLIC "-//W3C//DTD SVG 20010904//EN"
 "http://www.w3.org/TR/2001/REC-SVG-20010904/DTD/svg10.dtd">
<svg version="1.0" xmlns="http://www.w3.org/2000/svg"
 width="1863.000000pt" height="1863.000000pt" viewBox="0 0 1863.000000 1863.000000"
 preserveAspectRatio="xMidYMid meet">

<g transform="translate(0.000000,1863.000000) scale(0.100000,-0.100000)"
fill="#000000" stroke="none">
<path d="M8750 16978 c-114 -7 -148 -13 -162 -26 -25 -26 -78 -132 -78 -156 0
-12 -7 -31 -15 -42 -8 -10 -15 -29 -15 -41 0 -12 -6 -37 -14 -55 -17 -42 -35
-94 -46 -133 -5 -16 -14 -46 -21 -65 -6 -19 -17 -51 -24 -70 -7 -19 -18 -51
-24 -70 -7 -19 -16 -48 -21 -65 -5 -16 -13 -43 -19 -60 -6 -16 -22 -64 -37
-105 -14 -41 -29 -96 -33 -123 -4 -26 -13 -53 -19 -59 -7 -7 -12 -24 -12 -38
0 -14 -7 -35 -15 -46 -8 -10 -15 -30 -15 -42 0 -13 -6 -36 -14 -50 -7 -15 -24
-51 -37 -81 -27 -60 -76 -101 -124 -101 -16 -1 -41 -7 -55 -15 -14 -8 -39 -14
-56 -15 -17 0 -48 -7 -67 -15 -20 -8 -50 -15 -67 -15 -17 0 -41 -5 -53 -12
-12 -6 -40 -15 -62 -19 -22 -4 -56 -12 -75 -19 -19 -6 -48 -16 -65 -22 -16 -6
-43 -13 -60 -16 -16 -2 -39 -11 -50 -18 -13 -9 -50 -14 -111 -14 l-91 0 -89
85 c-49 47 -107 98 -129 113 -22 15 -94 80 -160 146 -66 65 -133 125 -149 133
-16 8 -86 71 -155 140 -69 69 -144 137 -166 152 -22 14 -56 42 -76 62 -97 98
-107 97 -382 -41 -122 -61 -235 -121 -251 -133 -17 -13 -66 -41 -109 -62 -43
-22 -86 -47 -95 -56 -9 -8 -39 -26 -67 -39 -27 -14 -66 -37 -86 -52 -20 -15
-40 -28 -44 -28 -4 0 -24 -13 -45 -30 -21 -16 -41 -30 -44 -30 -4 0 -30 -15
-59 -34 -212 -140 -257 -190 -227 -260 7 -17 16 -58 19 -91 4 -33 12 -70 19
-82 7 -12 12 -43 12 -70 1 -26 7 -59 15 -73 8 -14 14 -44 15 -66 0 -23 7 -55
15 -70 8 -16 15 -47 15 -69 1 -22 7 -51 15 -65 8 -14 14 -44 15 -66 0 -23 7
-58 15 -77 8 -20 15 -51 15 -69 1 -18 7 -44 15 -58 8 -14 14 -44 15 -68 0 -23
7 -59 15 -79 8 -19 15 -52 15 -73 0 -21 7 -54 15 -73 8 -20 15 -63 15 -95 0
-50 -5 -66 -30 -100 -17 -23 -34 -42 -39 -42 -5 0 -130 -121 -279 -270 l-271
-270 -76 0 c-45 0 -90 6 -112 15 -19 8 -54 15 -77 15 -22 1 -52 7 -66 15 -14
8 -47 15 -75 15 -27 0 -61 7 -75 15 -14 8 -40 14 -58 15 -18 0 -49 7 -69 15
-19 8 -54 15 -77 15 -22 1 -52 7 -66 15 -14 8 -43 14 -65 15 -22 0 -53 7 -69
15 -15 8 -46 15 -67 15 -22 0 -56 7 -76 15 -19 8 -54 15 -77 15 -22 1 -52 7
-66 15 -14 8 -41 15 -60 15 -19 0 -46 7 -60 15 -14 8 -42 14 -64 15 -30 0 -44
-7 -70 -33 -36 -38 -79 -95 -85 -111 -2 -6 -17 -27 -32 -47 -16 -20 -29 -40
-29 -44 0 -4 -13 -24 -28 -44 -16 -20 -32 -44 -35 -54 -4 -9 -25 -44 -47 -77
-22 -32 -40 -63 -40 -67 0 -4 -18 -35 -40 -68 -22 -33 -50 -80 -62 -105 -12
-25 -32 -59 -44 -75 -30 -40 -294 -567 -294 -586 1 -33 43 -87 170 -216 75
-76 154 -163 177 -193 22 -30 90 -105 149 -165 60 -61 121 -128 136 -150 15
-22 86 -100 158 -173 l130 -133 0 -74 c0 -41 -6 -89 -14 -107 -23 -56 -46
-135 -46 -157 0 -12 -5 -31 -11 -42 -13 -26 -38 -111 -49 -169 -4 -25 -12 -58
-18 -75 -12 -34 -29 -100 -42 -160 -21 -99 -40 -134 -84 -153 -46 -21 -96 -40
-141 -52 -16 -5 -46 -14 -65 -21 -19 -6 -51 -17 -70 -24 -19 -7 -51 -18 -70
-24 -19 -7 -48 -16 -65 -21 -39 -11 -91 -29 -133 -46 -18 -8 -43 -14 -55 -14
-12 0 -31 -7 -41 -15 -11 -8 -31 -15 -45 -15 -24 0 -68 -12 -161 -45 -19 -7
-51 -18 -70 -24 -19 -7 -48 -16 -65 -21 -16 -5 -46 -14 -65 -21 -19 -6 -51
-17 -70 -24 -19 -7 -51 -18 -70 -25 -19 -6 -45 -14 -58 -17 -13 -3 -36 -18
-51 -34 -26 -26 -29 -35 -35 -131 -3 -57 -10 -130 -15 -163 -13 -82 -12 -817
0 -880 6 -27 13 -110 17 -184 7 -131 8 -134 34 -154 16 -12 72 -35 125 -53
205 -66 459 -147 488 -155 29 -7 59 -17 135 -45 19 -6 154 -51 300 -98 146
-48 270 -90 276 -94 19 -13 54 -92 54 -125 1 -18 7 -43 15 -57 8 -14 14 -42
15 -64 0 -37 19 -107 46 -174 8 -18 14 -47 14 -65 1 -18 7 -43 15 -57 8 -14
14 -37 15 -52 0 -15 6 -42 14 -60 31 -74 46 -136 46 -189 0 -53 -3 -58 -53
-115 -29 -32 -66 -77 -82 -99 -16 -22 -72 -83 -124 -135 -51 -52 -106 -113
-120 -135 -14 -22 -81 -96 -148 -164 -67 -68 -135 -142 -150 -165 -15 -22 -66
-79 -112 -126 -98 -100 -126 -147 -117 -199 6 -37 203 -436 260 -525 17 -28
45 -76 60 -106 16 -30 38 -68 50 -85 12 -16 32 -50 45 -75 13 -25 34 -59 47
-77 13 -17 24 -35 24 -38 0 -4 12 -24 28 -44 15 -20 35 -52 46 -71 10 -19 37
-60 60 -90 23 -30 50 -72 61 -94 24 -46 59 -76 90 -76 12 0 94 16 181 36 87
20 179 40 204 44 25 5 86 18 135 30 50 12 114 25 144 30 29 5 106 20 170 35
64 14 148 33 186 41 39 8 97 21 130 29 33 8 92 19 131 26 71 12 72 11 107 -15
20 -15 51 -46 70 -69 58 -71 440 -448 469 -463 49 -25 68 -65 68 -141 -1 -40
-7 -78 -15 -93 -8 -14 -14 -40 -15 -58 0 -18 -7 -49 -15 -69 -8 -19 -15 -54
-15 -77 -1 -22 -7 -52 -15 -66 -8 -14 -15 -47 -15 -75 0 -27 -7 -61 -15 -75
-8 -14 -15 -47 -15 -75 0 -27 -7 -61 -15 -75 -8 -14 -15 -41 -15 -60 0 -19 -7
-46 -15 -60 -8 -14 -15 -47 -15 -75 0 -27 -7 -61 -15 -75 -8 -14 -15 -41 -15
-60 0 -19 -7 -46 -15 -60 -8 -14 -15 -47 -15 -75 0 -27 -7 -61 -15 -75 -8 -14
-14 -51 -15 -82 l0 -57 53 -38 c29 -21 60 -42 69 -48 10 -5 51 -34 92 -62 42
-29 78 -53 82 -53 3 0 23 -12 43 -27 20 -16 47 -34 61 -42 14 -8 70 -42 125
-76 55 -34 129 -77 165 -95 36 -19 98 -54 139 -78 140 -83 437 -222 476 -222
31 0 47 10 114 72 43 40 116 106 162 147 46 41 123 110 170 155 47 44 115 105
150 135 35 29 109 96 164 147 170 159 305 274 322 274 17 0 105 -24 163 -45
55 -20 169 -53 300 -89 82 -22 140 -36 300 -71 41 -9 83 -23 93 -32 24 -22 63
-110 87 -198 11 -39 29 -91 46 -133 8 -18 14 -44 14 -57 0 -13 6 -39 14 -57 8
-18 29 -80 46 -138 18 -58 38 -121 45 -140 7 -19 18 -51 24 -70 7 -19 16 -48
21 -65 11 -39 29 -91 46 -133 8 -18 14 -43 14 -55 0 -12 7 -31 15 -41 8 -11
15 -31 15 -44 0 -62 62 -209 93 -221 54 -21 460 -34 877 -28 481 7 618 17 634
44 18 30 146 422 146 445 0 9 9 35 20 60 10 24 26 69 34 99 14 52 25 85 51
159 7 19 41 123 75 230 34 107 76 232 92 277 l30 81 64 11 c35 6 98 21 141 32
43 11 96 24 118 28 58 11 219 56 384 109 130 41 146 44 166 31 12 -8 36 -23
55 -34 18 -11 90 -75 159 -143 69 -68 153 -145 186 -170 33 -26 110 -96 171
-155 61 -60 129 -121 150 -135 21 -15 84 -71 139 -126 128 -126 169 -156 212
-156 23 0 109 38 276 122 218 109 293 150 450 244 27 16 79 47 116 69 58 35
148 92 231 148 149 100 190 129 204 142 21 22 22 161 1 212 -8 19 -15 53 -15
75 0 21 -7 55 -15 75 -8 19 -15 50 -15 67 -1 17 -7 42 -15 56 -8 14 -15 48
-15 75 0 28 -7 61 -15 75 -8 14 -14 41 -15 61 0 20 -7 53 -15 72 -8 20 -15 54
-15 75 0 22 -7 59 -15 82 -8 23 -15 57 -15 74 -1 17 -7 42 -15 56 -8 14 -14
44 -15 68 0 23 -7 59 -15 79 -8 19 -15 49 -15 65 0 16 -7 42 -15 58 -11 20
-13 42 -9 70 6 37 21 55 142 168 164 154 191 181 356 356 128 137 130 138 165
131 20 -3 61 -10 91 -15 30 -4 73 -13 95 -18 22 -6 76 -18 120 -27 44 -9 105
-23 136 -31 30 -8 66 -14 80 -14 13 0 42 -7 64 -15 22 -8 55 -14 74 -15 18 0
54 -6 80 -14 69 -22 176 -46 202 -46 12 0 45 -6 73 -14 28 -8 87 -22 131 -31
44 -10 106 -24 138 -32 52 -13 61 -13 82 1 21 14 275 383 275 399 0 6 13 26
82 129 21 32 50 83 86 152 15 28 37 67 50 85 42 63 262 511 262 534 0 29 -18
54 -99 135 -36 37 -78 84 -93 105 -14 22 -67 81 -117 133 -50 52 -101 111
-115 131 -13 21 -88 103 -167 183 -79 80 -156 163 -170 185 -15 22 -49 63 -77
91 -56 57 -92 110 -92 136 0 15 35 137 75 258 8 25 15 55 15 67 0 12 6 37 14
55 21 51 39 109 46 153 4 22 13 63 20 90 6 28 18 75 25 105 33 137 21 120 115
157 47 18 90 33 95 33 6 0 74 20 150 45 77 25 286 93 465 151 520 169 538 176
555 194 12 13 20 53 28 132 13 136 16 1024 3 1222 -7 124 -11 142 -30 159 -23
20 -75 42 -141 58 -22 6 -44 14 -49 20 -6 5 -24 9 -41 9 -17 0 -40 7 -51 15
-10 8 -29 15 -41 15 -12 0 -37 6 -55 14 -42 17 -94 35 -133 46 -16 5 -46 14
-65 21 -19 6 -51 17 -70 24 -19 7 -51 18 -70 25 -19 6 -51 15 -70 19 -19 4
-45 13 -57 19 -12 7 -30 12 -40 12 -10 0 -31 7 -47 15 -15 8 -40 15 -55 15
-15 0 -36 7 -47 15 -10 8 -31 15 -45 15 -14 0 -34 7 -45 15 -10 8 -30 15 -42
15 -13 0 -36 6 -50 13 -135 67 -133 65 -162 147 -7 19 -16 62 -19 95 -3 33
-10 67 -16 75 -5 8 -12 32 -16 55 -13 68 -52 213 -74 275 -7 19 -18 51 -25 70
-7 19 -14 49 -17 65 -3 17 -11 44 -19 62 -31 70 -23 89 96 224 61 68 151 167
200 220 49 53 111 123 137 155 27 33 89 102 139 154 50 52 122 131 160 174 38
43 95 107 127 142 39 44 57 72 57 90 0 28 -264 565 -303 618 -13 17 -33 51
-45 76 -12 25 -40 72 -62 105 -22 33 -40 64 -40 69 0 4 -13 25 -28 45 -16 20
-31 43 -34 51 -3 8 -31 50 -62 93 -31 43 -56 80 -56 83 0 10 -93 139 -109 151
-29 23 -60 26 -95 9 -19 -9 -51 -16 -73 -16 -21 -1 -49 -7 -63 -15 -14 -8 -44
-14 -66 -15 -23 0 -58 -7 -77 -15 -20 -8 -51 -15 -69 -15 -18 -1 -44 -7 -58
-15 -14 -8 -47 -15 -75 -15 -27 0 -61 -7 -75 -15 -14 -8 -47 -15 -75 -15 -27
0 -61 -7 -75 -15 -14 -8 -44 -14 -66 -15 -23 0 -58 -7 -77 -15 -20 -8 -51 -15
-69 -15 -18 -1 -44 -7 -58 -15 -14 -8 -47 -15 -75 -15 -27 0 -61 -7 -75 -15
-17 -9 -56 -14 -118 -15 l-92 0 -289 289 c-159 159 -297 303 -306 321 -14 28
-15 41 -5 103 6 40 16 90 22 112 6 22 15 63 19 90 4 28 13 70 19 95 21 84 33
135 41 180 4 25 12 63 17 85 6 22 18 76 27 120 9 44 21 98 27 120 6 22 14 63
18 90 5 28 13 70 19 95 7 25 18 74 25 110 8 36 20 91 27 123 15 72 7 90 -63
137 -28 19 -56 40 -62 46 -6 6 -24 19 -41 29 -80 50 -174 110 -212 136 -23 16
-44 29 -48 29 -3 0 -21 11 -38 24 -18 13 -52 34 -77 47 -25 13 -58 34 -75 46
-16 12 -98 57 -182 100 -84 43 -192 99 -240 125 -48 25 -95 47 -103 47 -8 1
-35 15 -59 31 -53 36 -119 40 -166 12 -16 -11 -79 -68 -140 -128 -60 -60 -128
-121 -150 -135 -22 -15 -93 -78 -157 -142 -64 -64 -134 -127 -155 -140 -21
-14 -88 -74 -150 -133 -62 -60 -142 -130 -177 -156 -63 -46 -68 -48 -135 -48
-39 0 -85 6 -103 14 -63 26 -103 38 -148 46 -25 4 -56 11 -70 17 -43 18 -197
59 -272 73 -26 5 -56 13 -67 19 -11 6 -34 11 -52 11 -40 0 -111 41 -125 72
-15 32 -34 87 -43 123 -4 17 -13 40 -19 52 -7 12 -12 31 -12 42 0 10 -6 32
-14 48 -20 40 -37 92 -46 138 -4 22 -17 67 -30 100 -12 33 -25 76 -30 95 -4
19 -14 51 -20 70 -7 19 -18 51 -25 70 -7 19 -18 51 -24 70 -7 19 -16 49 -21
65 -5 17 -14 46 -21 65 -6 19 -17 51 -24 70 -7 19 -18 51 -25 70 -6 19 -14 46
-16 60 -22 121 -78 194 -158 205 -185 25 -919 33 -1236 13z m931 -534 c4 -2
44 -118 89 -257 45 -138 108 -333 140 -432 32 -99 91 -281 131 -405 40 -124
74 -227 75 -229 2 -2 88 -18 191 -36 400 -70 763 -171 1121 -311 l84 -33 513
465 c283 255 520 464 527 464 13 0 27 -7 168 -82 156 -84 453 -262 469 -282 6
-7 -4 -70 -25 -166 -46 -215 -177 -828 -240 -1129 -13 -61 -14 -75 -2 -86 7
-6 67 -56 133 -111 266 -220 532 -487 760 -762 60 -72 115 -132 122 -132 6 0
99 18 205 41 197 41 232 49 443 94 66 14 161 34 210 45 50 11 144 31 210 45
66 14 154 33 195 41 41 9 78 18 82 20 17 11 241 -362 361 -600 l25 -50 -36
-41 c-21 -23 -138 -153 -262 -290 -537 -595 -630 -700 -630 -711 0 -6 18 -60
41 -120 142 -377 241 -748 305 -1146 9 -59 20 -111 23 -117 4 -5 96 -39 206
-74 656 -212 806 -261 955 -309 l165 -54 8 -187 c5 -103 5 -271 0 -374 l-8
-188 -125 -42 c-69 -23 -267 -87 -440 -143 -173 -56 -367 -119 -430 -139 -63
-21 -164 -53 -223 -72 -85 -27 -109 -38 -112 -54 -2 -11 -20 -110 -40 -220
-64 -362 -158 -696 -294 -1054 l-39 -103 464 -514 c255 -282 464 -518 464
-525 0 -35 -296 -555 -357 -627 l-18 -21 -155 34 c-85 19 -200 44 -255 55 -55
12 -129 28 -165 35 -563 123 -776 166 -787 158 -6 -4 -71 -80 -145 -168 -170
-205 -498 -532 -706 -705 -89 -74 -162 -141 -162 -148 0 -12 19 -104 121 -582
11 -52 26 -124 34 -160 19 -85 58 -268 86 -400 12 -58 27 -129 34 -158 l13
-52 -56 -39 c-114 -76 -391 -236 -547 -314 l-49 -25 -41 35 c-22 20 -83 75
-135 123 -93 85 -140 127 -470 424 -91 82 -204 185 -252 228 -97 89 -133 118
-143 118 -4 0 -87 -29 -184 -64 -369 -134 -770 -237 -1107 -286 -44 -7 -86
-15 -92 -19 -6 -4 -39 -92 -73 -196 -68 -214 -145 -453 -276 -855 l-89 -275
-191 -8 c-106 -5 -274 -5 -375 0 l-183 8 -42 125 c-38 115 -135 415 -315 975
-40 121 -73 222 -74 224 -2 1 -88 18 -193 37 -187 33 -242 45 -411 86 -205 50
-470 134 -689 217 l-103 39 -252 -227 c-670 -607 -776 -701 -787 -701 -35 0
-555 296 -627 357 l-21 18 34 155 c19 85 43 200 55 255 11 55 27 129 35 165 8
36 26 119 40 185 14 66 34 161 45 210 86 401 83 386 69 399 -8 7 -84 71 -169
142 -202 168 -530 497 -699 702 -74 89 -140 162 -147 162 -11 0 -94 -17 -269
-54 -38 -9 -122 -26 -185 -40 -63 -13 -223 -47 -355 -75 -132 -29 -285 -61
-340 -73 -55 -11 -124 -26 -153 -33 l-52 -13 -29 41 c-82 121 -238 390 -324
561 l-25 50 36 41 c42 47 427 473 578 640 270 298 314 349 314 360 0 7 -18 61
-41 121 -140 372 -232 716 -299 1114 -27 162 -26 157 -63 169 -84 26 -791 254
-1162 375 l-130 43 -8 186 c-5 103 -5 271 0 375 l8 187 125 42 c122 40 518
168 973 315 187 60 228 77 232 93 2 11 20 110 40 220 64 362 158 696 294 1054
l39 103 -464 514 c-255 282 -464 519 -464 526 0 13 7 27 82 168 83 155 241
418 275 458 l18 21 155 -34 c85 -19 200 -43 255 -55 170 -36 327 -70 395 -85
36 -8 108 -23 160 -34 52 -11 162 -35 243 -52 126 -27 151 -29 161 -18 7 8 71
84 142 169 166 199 495 528 702 700 89 74 162 140 162 147 0 12 -34 177 -95
458 -14 66 -43 203 -65 305 -22 102 -51 239 -65 305 -14 66 -33 154 -41 195
-9 41 -18 78 -20 82 -11 17 355 237 601 361 l49 25 41 -35 c22 -20 83 -75 135
-123 104 -95 341 -309 515 -464 60 -54 151 -136 201 -182 49 -46 103 -93 119
-105 l28 -23 76 28 c458 169 863 276 1252 331 25 4 51 10 57 14 7 4 41 97 76
206 35 110 91 283 124 385 33 102 100 309 149 460 l89 275 114 6 c120 7 618 1
631 -7z"/>
<path d="M7125 12335 c-5 -2 -64 -20 -130 -41 -888 -278 -1620 -961 -1962
-1832 -481 -1226 -143 -2619 847 -3487 328 -287 676 -485 1105 -627 210 -70
316 -63 413 26 120 110 125 300 11 414 -45 46 -65 55 -261 119 -119 39 -222
81 -337 139 -273 137 -454 268 -672 484 -372 372 -606 821 -706 1360 -26 136
-27 163 -27 430 0 267 1 294 27 430 100 540 331 985 707 1360 214 215 397 347
671 484 115 58 218 100 337 139 196 64 216 73 261 119 111 111 109 301 -5 410
-58 55 -116 78 -199 77 -38 0 -74 -2 -80 -4z"/>
<path d="M10814 12201 c-58 -27 -115 -81 -144 -138 -21 -40 -25 -62 -24 -128
0 -82 15 -126 61 -182 10 -11 223 -200 473 -418 553 -482 686 -599 894 -781
89 -77 451 -394 806 -704 355 -310 647 -567 649 -572 4 -11 48 27 -624 -534
-302 -253 -714 -597 -915 -765 -201 -167 -568 -474 -816 -681 -248 -208 -467
-395 -487 -418 -71 -84 -84 -200 -33 -305 30 -61 64 -94 130 -129 67 -35 169
-36 241 -2 29 13 193 143 395 311 2157 1802 2202 1840 2470 2063 135 113 264
223 287 245 90 86 114 219 59 330 -30 62 60 -19 -1401 1258 -236 207 -725 634
-1085 949 -443 387 -671 580 -705 596 -64 31 -170 33 -231 5z"/>
<path d="M7420 10988 c-486 -142 -882 -475 -1094 -918 -135 -284 -193 -591
-166 -882 22 -245 71 -421 175 -633 170 -345 434 -610 780 -783 159 -80 318
-132 400 -132 96 0 136 26 407 262 139 121 314 273 388 338 74 64 248 215 385
335 138 120 387 337 555 484 168 146 429 373 580 505 151 132 320 279 375 327
55 48 173 150 262 228 89 78 167 141 174 141 6 0 33 -19 58 -42 26 -24 271
-238 544 -477 274 -239 496 -439 494 -445 -2 -6 -266 -231 -588 -499 -795
-664 -740 -615 -773 -676 -77 -143 -19 -322 127 -394 75 -36 182 -38 248 -4
40 20 267 206 1144 941 171 143 356 298 413 345 116 96 156 149 172 228 13 61
8 107 -17 168 -24 57 -46 81 -189 207 -889 781 -1465 1278 -1507 1300 -43 23
-65 28 -128 28 -104 0 -137 -19 -355 -210 -173 -152 -644 -562 -1174 -1023
-146 -127 -332 -290 -415 -362 -82 -72 -361 -315 -620 -540 -258 -225 -505
-440 -548 -477 -43 -37 -82 -68 -88 -68 -18 0 -113 52 -199 108 -246 163 -420
427 -486 737 -35 165 -20 395 38 575 73 229 248 460 449 592 112 74 165 100
297 143 153 50 212 100 248 208 35 104 -3 240 -86 308 -72 60 -189 83 -280 57z"/>
</g>
</svg>
